<svg width="16" height="16" viewBox="0 0 16 16" fill="none" xmlns="http://www.w3.org/2000/svg">
<path d="M7.29336 4.05336C7.5272 4.01751 7.76345 3.99968 8.00002 4.00002C10.12 4.00002 12.1134 5.52669 13.2734 8.00002C13.0959 8.37642 12.8956 8.74155 12.6734 9.09336C12.6028 9.20256 12.5657 9.33001 12.5667 9.46002C12.5682 9.60551 12.6172 9.74653 12.7063 9.86154C12.7954 9.97655 12.9197 10.0593 13.0603 10.097C13.2008 10.1348 13.3498 10.1256 13.4845 10.0707C13.6193 10.0159 13.7325 9.91849 13.8067 9.79336C14.1173 9.30531 14.3871 8.79246 14.6134 8.26002C14.6491 8.17684 14.6676 8.08724 14.6676 7.99669C14.6676 7.90614 14.6491 7.81654 14.6134 7.73336C13.2667 4.60669 10.7334 2.66669 8.00002 2.66669C7.68713 2.66511 7.37475 2.69189 7.06669 2.74669C6.97914 2.76157 6.89538 2.79355 6.82019 2.84081C6.74501 2.88806 6.67986 2.94966 6.62848 3.02209C6.5771 3.09452 6.54048 3.17636 6.52073 3.26294C6.50098 3.34952 6.49847 3.43914 6.51336 3.52669C6.52824 3.61424 6.56022 3.698 6.60747 3.77318C6.65473 3.84837 6.71633 3.91352 6.78876 3.9649C6.86119 4.01628 6.94303 4.05289 7.02961 4.07265C7.11619 4.0924 7.20581 4.09491 7.29336 4.08002V4.05336ZM2.47336 1.52669C2.4112 1.46453 2.3374 1.41522 2.25619 1.38158C2.17497 1.34794 2.08793 1.33063 2.00002 1.33063C1.91212 1.33063 1.82507 1.34794 1.74386 1.38158C1.66264 1.41522 1.58885 1.46453 1.52669 1.52669C1.40115 1.65222 1.33063 1.82249 1.33063 2.00002C1.33063 2.17756 1.40115 2.34782 1.52669 2.47336L3.59336 4.53336C2.6504 5.44104 1.89993 6.52935 1.38669 7.73336C1.34998 7.81747 1.33103 7.90825 1.33103 8.00002C1.33103 8.09179 1.34998 8.18258 1.38669 8.26669C2.73336 11.3934 5.26669 13.3334 8.00002 13.3334C9.19809 13.3251 10.3679 12.9684 11.3667 12.3067L13.5267 14.4734C13.5887 14.5358 13.6624 14.5854 13.7436 14.6193C13.8249 14.6531 13.912 14.6706 14 14.6706C14.088 14.6706 14.1752 14.6531 14.2564 14.6193C14.3376 14.5854 14.4114 14.5358 14.4734 14.4734C14.5358 14.4114 14.5854 14.3376 14.6193 14.2564C14.6531 14.1752 14.6706 14.088 14.6706 14C14.6706 13.912 14.6531 13.8249 14.6193 13.7436C14.5854 13.6624 14.5358 13.5887 14.4734 13.5267L2.47336 1.52669ZM6.71336 7.65336L8.34669 9.28669C8.23401 9.319 8.11723 9.33472 8.00002 9.33336C7.6464 9.33336 7.30726 9.19288 7.05721 8.94283C6.80717 8.69278 6.66669 8.35364 6.66669 8.00002C6.66532 7.88281 6.68104 7.76603 6.71336 7.65336ZM8.00002 12C5.88002 12 3.88669 10.4734 2.73336 8.00002C3.16408 7.04919 3.7754 6.19107 4.53336 5.47336L5.71336 6.66669C5.43619 7.17255 5.33052 7.75465 5.41219 8.32566C5.49387 8.89667 5.7585 9.4258 6.16637 9.83367C6.57425 10.2415 7.10338 10.5062 7.67438 10.5879C8.24539 10.6695 8.82749 10.5639 9.33336 10.2867L10.3934 11.3334C9.66742 11.7606 8.84231 11.9904 8.00002 12Z" fill="#3E3E40"/>
</svg>
