<svg width="16" height="16" viewBox="0 0 16 16" fill="none" xmlns="http://www.w3.org/2000/svg">
<path d="M14.6133 7.73332C13.2666 4.60666 10.7333 2.66666 7.99998 2.66666C5.26665 2.66666 2.73332 4.60666 1.38665 7.73332C1.34994 7.81743 1.33099 7.90822 1.33099 7.99999C1.33099 8.09176 1.34994 8.18255 1.38665 8.26666C2.73332 11.3933 5.26665 13.3333 7.99998 13.3333C10.7333 13.3333 13.2666 11.3933 14.6133 8.26666C14.65 8.18255 14.669 8.09176 14.669 7.99999C14.669 7.90822 14.65 7.81743 14.6133 7.73332ZM7.99998 12C5.88665 12 3.88665 10.4733 2.73332 7.99999C3.88665 5.52666 5.88665 3.99999 7.99998 3.99999C10.1133 3.99999 12.1133 5.52666 13.2666 7.99999C12.1133 10.4733 10.1133 12 7.99998 12ZM7.99998 5.33332C7.47257 5.33332 6.95699 5.48972 6.51846 5.78274C6.07993 6.07575 5.73814 6.49223 5.5363 6.9795C5.33447 7.46677 5.28166 8.00295 5.38456 8.52023C5.48745 9.03751 5.74143 9.51267 6.11437 9.88561C6.48731 10.2585 6.96246 10.5125 7.47974 10.6154C7.99703 10.7183 8.5332 10.6655 9.02047 10.4637C9.50774 10.2618 9.92422 9.92004 10.2172 9.48151C10.5103 9.04298 10.6666 8.52741 10.6666 7.99999C10.6666 7.29275 10.3857 6.61447 9.8856 6.11437C9.3855 5.61427 8.70723 5.33332 7.99998 5.33332ZM7.99998 9.33332C7.73627 9.33332 7.47849 9.25512 7.25922 9.10862C7.03996 8.96211 6.86906 8.75387 6.76814 8.51023C6.66723 8.2666 6.64082 7.99851 6.69227 7.73987C6.74372 7.48123 6.8707 7.24365 7.05717 7.05718C7.24364 6.87071 7.48122 6.74372 7.73986 6.69228C7.9985 6.64083 8.26659 6.66723 8.51023 6.76815C8.75386 6.86907 8.9621 7.03996 9.10861 7.25923C9.25512 7.4785 9.33332 7.73628 9.33332 7.99999C9.33332 8.35361 9.19284 8.69275 8.94279 8.9428C8.69274 9.19285 8.35361 9.33332 7.99998 9.33332Z" fill="#3E3E40"/>
</svg>
